<?xml version="1.0" encoding="UTF-8"?>
<svg width="24px" height="15px" viewBox="0 0 24 15" version="1.1" xmlns="http://www.w3.org/2000/svg" xmlns:xlink="http://www.w3.org/1999/xlink">
    <!-- Generator: Sketch 42 (36781) - http://www.bohemiancoding.com/sketch -->
    <title>new-message</title>
    <desc>Created with Sketch.</desc>
    <defs></defs>
    <g id="Page-2" stroke="none" stroke-width="1" fill="none" fill-rule="evenodd">
        <g id="JR-Landing" transform="translate(-376.000000, -1486.000000)" fill="#FFFFFF">
            <g id="Cotizaciones" transform="translate(220.000000, 1382.000000)">
                <g id="Datos" transform="translate(149.000000, 44.000000)">
                    <g id="Correo" transform="translate(7.000000, 56.000000)">
                        <path d="M0.767813719,5.40437088 C1.39919869,5.7428553 10.1406315,10.4392862 10.4665076,10.6135394 C10.7923837,10.7890857 11.2142769,10.8724945 11.6384331,10.8724945 C12.0625894,10.8724945 12.4844825,10.7890857 12.8103587,10.6135394 C13.1362348,10.4392862 21.8776676,5.74414845 22.5090526,5.40437088 C23.1404375,5.0645933 23.7378771,4 22.5772667,4 L0.699599572,4 C-0.4610108,4 0.136428745,5.0645933 0.767813719,5.40437088 L0.767813719,5.40437088 Z M22.7767365,7.99068925 C22.0593565,8.36441226 13.2497095,12.9712919 12.8103587,13.1998578 C12.3710078,13.4297168 12.0625894,13.4588129 11.6384331,13.4588129 C11.2142769,13.4588129 10.9058585,13.4297168 10.4665076,13.1998578 C10.0271568,12.9712919 1.21880299,8.36441226 0.500129767,7.99068925 C-0.00387902659,7.72656149 4.50974016e-07,8.03594983 4.50974016e-07,8.27486099 L4.50974016e-07,17.7598603 C4.50974016e-07,18.3029872 0.722229857,19 1.28313766,19 L21.9937286,19 C22.5546364,19 23.2768658,18.3029872 23.2768658,17.7598603 L23.2768658,8.27486099 C23.2768658,8.03594983 23.2820385,7.72656149 22.7767365,7.99068925 L22.7767365,7.99068925 Z" id="new-message"></path>
                    </g>
                </g>
            </g>
        </g>
    </g>
</svg>