<?xml version="1.0" encoding="UTF-8"?>
<svg width="20px" height="20px" viewBox="0 0 20 20" version="1.1" xmlns="http://www.w3.org/2000/svg" xmlns:xlink="http://www.w3.org/1999/xlink">
    <!-- Generator: Sketch 42 (36781) - http://www.bohemiancoding.com/sketch -->
    <title>Fill 1</title>
    <desc>Created with Sketch.</desc>
    <defs></defs>
    <g id="Page-2" stroke="none" stroke-width="1" fill="none" fill-rule="evenodd">
        <g id="JR-Landing" transform="translate(-379.000000, -1533.000000)" fill="#FFFFFF">
            <g id="Cotizaciones" transform="translate(220.000000, 1382.000000)">
                <g id="Datos" transform="translate(149.000000, 44.000000)">
                    <g id="Telefono" transform="translate(10.000000, 106.000000)">
                        <g id="call-answer" transform="translate(0.000000, 1.000000)">
                            <path d="M19.1178691,15.7794856 L16.0979609,12.7582819 C15.4959658,12.1593097 14.5005577,12.1778791 13.8782658,12.8006029 L12.3564359,14.322001 C12.2605658,14.2697475 12.160809,14.2140392 12.056302,14.1553079 C11.094578,13.6219765 9.78046668,12.8934501 8.39553238,11.5085158 C7.00757514,10.1201267 6.2768895,8.80256059 5.74398993,7.84083664 C5.68655424,7.73978437 5.63257333,7.64218688 5.5803198,7.54761232 L6.60077498,6.52845268 L7.10344524,6.02578242 C7.72616906,5.40176306 7.74473849,4.40635503 7.14403889,3.80608728 L4.12283515,0.784883535 C3.52386294,0.184183935 2.52715936,0.202753369 1.90270816,0.826772723 L1.05283266,1.68226223 L1.07442503,1.70558199 C0.789405809,2.07006111 0.551457944,2.49024854 0.374400549,2.94239267 C0.210730421,3.37423997 0.107950763,3.78579045 0.0626067956,4.19734093 C-0.337283808,7.50356389 1.17418176,10.5247676 5.27327637,14.6255896 C10.9412722,20.2918581 15.509353,19.865193 15.7067072,19.8431688 C16.1350998,19.7926426 16.5466502,19.689863 16.9651103,19.5279202 C17.4137996,19.3525902 17.8339871,19.1146424 18.1967388,18.8296231 L18.2153082,18.8464652 L19.0790028,18.00134 C19.6995674,17.3768888 19.7181368,16.3819126 19.1178691,15.7794856 L19.1178691,15.7794856 Z" id="Fill-1"></path>
                        </g>
                    </g>
                </g>
            </g>
        </g>
    </g>
</svg>