<?xml version="1.0" encoding="UTF-8"?>
<svg width="79px" height="70px" viewBox="0 0 79 70" version="1.1" xmlns="http://www.w3.org/2000/svg" xmlns:xlink="http://www.w3.org/1999/xlink">
    <!-- Generator: Sketch 42 (36781) - http://www.bohemiancoding.com/sketch -->
    <title>Logo</title>
    <desc>Created with Sketch.</desc>
    <defs></defs>
    <g id="Page-2" stroke="none" stroke-width="1" fill="none" fill-rule="evenodd">
        <g id="JR-Landing" transform="translate(-320.000000, -80.000000)">
            <g id="Header" transform="translate(220.000000, 80.000000)">
                <g id="Logo/contacto" transform="translate(100.000000, 0.000000)">
                    <g id="Logo">
                        <path d="M32.1403257,32.5932401 C32.1403257,34.5957106 31.8356991,36.4064281 31.2264368,38.0254468 C30.6171745,39.6444655 29.7558166,41.0184805 28.6423372,42.147533 C27.5288578,43.2765855 26.1737947,44.1499904 24.5771073,44.7677739 C22.9804199,45.3855573 21.1946778,45.6944444 19.2198276,45.6944444 C17.6231402,45.6944444 16.1420247,45.3962086 14.7764368,44.799728 C13.4108489,44.2032475 12.2133513,43.4150528 11.183908,42.4351204 C10.1544648,41.4551881 9.34562874,40.3368037 8.75737548,39.079934 C8.16912222,37.8230642 7.875,36.5129568 7.875,35.1495726 C7.875,32.7210446 8.36870515,30.9103271 9.35613027,29.717366 C10.3435554,28.5244048 11.5305486,27.7788153 12.9171456,27.480575 L17.329023,31.3150738 C13.127214,31.9541601 11.026341,34.1909288 11.026341,38.0254468 C11.026341,38.8349561 11.2154196,39.6231508 11.5935824,40.3900544 C11.9717452,41.156958 12.5179722,41.8386399 13.2322797,42.4351204 C13.9465872,43.031601 14.8079451,43.5109086 15.8163793,43.8730575 C16.8248135,44.2352064 17.9592849,44.4162782 19.2198276,44.4162782 C20.2282617,44.4162782 21.1946633,44.1926013 22.1190613,43.7452409 C23.0434593,43.2978804 23.8522954,42.594896 24.5455939,41.6362665 C25.2388924,40.677637 25.7851193,39.4527399 26.1842912,37.9615385 C26.583463,36.470337 26.783046,34.6809221 26.783046,32.5932401 L26.783046,1.59770785 L23.0014368,0.639083139 L23.0014368,0 L35.9219349,0 L35.9219349,0.639083139 L32.1403257,1.59770785 L32.1403257,32.5932401 Z M52.308908,0 C54.9980658,0 57.3300348,0.298235816 59.3048851,0.894716395 C61.2797353,1.49119697 62.9184162,2.30069419 64.220977,3.32323232 C65.5235378,4.34577046 66.4899394,5.52806244 67.1202107,6.87014375 C67.7504821,8.21222505 68.065613,9.65014773 68.065613,11.1839549 C68.065613,12.4195218 67.8870388,13.5166036 67.5298851,14.4752331 C67.1727313,15.4338626 66.7105392,16.2859649 66.143295,17.0315657 C65.5760508,17.7771664 64.9142758,18.4055918 64.1579502,18.9168609 C63.4016246,19.42813 62.6453103,19.8541811 61.8889847,20.1950272 C60.0822068,21.0045366 58.04436,21.515798 55.7753831,21.7288267 C57.6241791,21.9418555 59.3048775,22.3892092 60.8175287,23.0709013 C62.1200895,23.6673819 63.3385959,24.5407868 64.4730843,25.6911422 C65.6075727,26.8414976 66.2798521,28.3965843 66.4899425,30.3564491 L67.7504789,41.540404 C67.8345151,42.3499134 68.0235937,42.9250825 68.3177203,43.2659285 C68.6118469,43.6067746 68.9479866,43.777195 69.3261494,43.777195 C69.5362399,43.777195 69.7568315,43.7026361 69.987931,43.5535159 C70.2190305,43.4043958 70.4396222,43.223324 70.6497126,43.0102953 C70.8598031,42.7972665 71.0488817,42.5203332 71.216954,42.1794872 L71.8472222,42.8185703 C71.5951137,43.3724451 71.2379653,43.862404 70.7757663,44.2884615 C70.3976035,44.6293076 69.9038983,44.948846 69.294636,45.2470862 C68.6853737,45.5453265 67.9605725,45.6944444 67.1202107,45.6944444 C65.6915957,45.6944444 64.5256112,45.2790446 63.6222222,44.4482323 C62.7188333,43.6174201 62.2041194,42.6481537 62.0780651,41.540404 L60.8175287,30.3564491 C60.6494564,28.9078534 60.3763429,27.6829563 59.9981801,26.6817211 C59.6200173,25.6804858 59.1053034,24.8603373 58.454023,24.221251 C57.8027426,23.5821646 56.9728978,23.1135084 55.9644636,22.8152681 C54.9560294,22.5170278 53.7375231,22.3679099 52.308908,22.3679099 L49.7878352,22.3679099 L49.7878352,43.1381119 L53.5694444,44.0967366 L53.5694444,44.7358197 L40.6489464,44.7358197 L40.6489464,44.0967366 L44.4305556,43.1381119 L44.4305556,1.59770785 L40.6489464,0.639083139 L40.6489464,0 L52.308908,0 Z M62.0780651,11.1839549 C62.0780651,7.98852326 61.2377159,5.53872906 59.5569923,3.83449883 C57.8762687,2.13026861 55.4602648,1.27816628 52.308908,1.27816628 L49.7878352,1.27816628 L49.7878352,21.0897436 L52.308908,21.0897436 C55.4602648,21.0897436 57.8762687,20.2376413 59.5569923,18.533411 C61.2377159,16.8291808 62.0780651,14.3793866 62.0780651,11.1839549 L62.0780651,11.1839549 Z" id="JR" fill="#914A3D"></path>
                        <path d="M0.07,59.8811111 C0.07,63.4861111 2.8525,66.3211111 6.335,66.3211111 C9.8175,66.3211111 12.6,63.4861111 12.6,59.8811111 C12.6,56.3461111 9.8175,53.5986111 6.335,53.5986111 C2.8525,53.5986111 0.07,56.3461111 0.07,59.8811111 L0.07,59.8811111 Z M1.33,59.8811111 C1.33,56.9411111 3.5525,54.7186111 6.335,54.7186111 C9.1,54.7186111 11.34,56.9411111 11.34,59.8811111 C11.34,62.8911111 9.1,65.2011111 6.335,65.2011111 C3.5525,65.2011111 1.33,62.8911111 1.33,59.8811111 L1.33,59.8811111 Z M14.98,66.1111111 L16.17,66.1111111 L16.17,62.4011111 C16.17,61.8411111 16.24,61.2461111 16.415,60.6861111 C16.8,59.3911111 17.7275,58.4111111 18.97,58.4111111 C19.1975,58.4111111 19.4075,58.4461111 19.4075,58.4461111 L19.4075,57.2736111 C19.4075,57.2736111 19.18,57.2211111 18.935,57.2211111 C17.5525,57.2211111 16.5725,58.2361111 16.1525,59.5661111 L16.1175,59.5661111 C16.1175,59.5661111 16.1525,59.2511111 16.1525,58.8661111 L16.1525,57.3086111 L14.98,57.3086111 L14.98,66.1111111 Z M21.175,55.2961111 L22.4175,55.2961111 L22.4175,53.8086111 L21.175,53.8086111 L21.175,55.2961111 Z M21.21,66.1111111 L22.4,66.1111111 L22.4,57.3086111 L21.21,57.3086111 L21.21,66.1111111 Z M25.935,68.1061111 L25.48,69.0861111 C26.3375,69.5236111 27.3525,69.7861111 28.3675,69.7861111 C30.52,69.7861111 32.585,68.7011111 32.585,65.9011111 L32.585,57.3086111 L31.43,57.3086111 L31.43,58.2711111 C31.43,58.4636111 31.4475,58.5686111 31.4475,58.5686111 L31.4125,58.5686111 C31.4125,58.5686111 30.835,57.0986111 28.5075,57.0986111 C26.145,57.0986111 24.6925,58.9011111 24.6925,61.5436111 C24.6925,64.1861111 26.25,66.0586111 28.6125,66.0586111 C29.9775,66.0586111 30.87,65.4986111 31.395,64.5186111 L31.43,64.5186111 C31.43,64.5186111 31.395,64.8161111 31.395,65.1486111 L31.395,65.9536111 C31.395,67.9136111 30.03,68.7186111 28.315,68.7186111 C27.02,68.7186111 25.935,68.1061111 25.935,68.1061111 L25.935,68.1061111 Z M28.805,64.9911111 C27.055,64.9911111 25.9175,63.6261111 25.9175,61.5261111 C25.9175,59.4261111 26.915,58.1836111 28.63,58.1836111 C30.1875,58.1836111 31.4125,58.9711111 31.4125,61.5436111 C31.4125,64.1336111 30.1875,64.9911111 28.805,64.9911111 L28.805,64.9911111 Z M35.42,55.2961111 L36.6625,55.2961111 L36.6625,53.8086111 L35.42,53.8086111 L35.42,55.2961111 Z M35.455,66.1111111 L36.645,66.1111111 L36.645,57.3086111 L35.455,57.3086111 L35.455,66.1111111 Z M39.515,66.1111111 L40.705,66.1111111 L40.705,61.8936111 C40.705,61.4736111 40.74,61.0711111 40.845,60.7036111 C41.2475,59.2511111 42.5425,58.2186111 44.0475,58.2186111 C45.745,58.2186111 45.955,59.4436111 45.955,60.8261111 L45.955,66.1111111 L47.145,66.1111111 L47.145,60.5111111 C47.145,58.3411111 46.375,57.0986111 44.205,57.0986111 C42.1225,57.0986111 41.0025,58.5161111 40.6875,59.3211111 L40.6525,59.3211111 C40.6525,59.3211111 40.6875,59.0061111 40.6875,58.6211111 L40.6875,57.3086111 L39.515,57.3086111 L39.515,66.1111111 Z M49.175,63.7136111 C49.175,65.4636111 50.6975,66.3211111 52.1675,66.3211111 C54.3725,66.3211111 55.1075,64.4136111 55.1075,64.4136111 L55.1425,64.4136111 C55.1425,64.4136111 55.1075,64.7111111 55.1075,65.1486111 L55.1075,66.1111111 L56.245,66.1111111 L56.245,60.4761111 C56.245,58.2711111 55.0725,57.0986111 52.955,57.0986111 C50.9775,57.0986111 49.8225,58.0961111 49.8225,58.0961111 L50.3825,59.0061111 C50.3825,59.0061111 51.415,58.1661111 52.8675,58.1661111 C54.1275,58.1661111 55.055,58.7436111 55.055,60.4411111 L55.055,60.6686111 L54.565,60.6686111 C53.0425,60.6686111 49.175,60.7386111 49.175,63.7136111 L49.175,63.7136111 Z M50.4,63.6436111 C50.4,61.7011111 53.165,61.6486111 54.5475,61.6486111 L55.055,61.6486111 L55.055,62.0336111 C55.055,63.5561111 54.04,65.3061111 52.36,65.3061111 C51.0475,65.3061111 50.4,64.4661111 50.4,63.6436111 L50.4,63.6436111 Z M58.905,64.0286111 C58.905,65.9536111 60.2,66.1811111 60.935,66.1811111 C61.1625,66.1811111 61.3725,66.1461111 61.3725,66.1461111 L61.3725,65.0786111 C61.3725,65.0786111 61.2325,65.0961111 61.075,65.0961111 C60.62,65.0961111 60.095,64.9211111 60.095,63.7661111 L60.095,53.8086111 L58.905,53.8086111 L58.905,64.0286111 Z M62.7025,61.7186111 C62.7025,64.4311111 64.68,66.3211111 67.305,66.3211111 C69.2825,66.3211111 70.56,65.0961111 70.56,65.0961111 L70.0175,64.1861111 C70.0175,64.1861111 68.95,65.2536111 67.34,65.2536111 C65.52,65.2536111 63.98,64.0286111 63.9275,61.7711111 L70.6825,61.7711111 C70.6825,61.7711111 70.7175,61.3686111 70.7175,61.1586111 C70.7175,58.9711111 69.475,57.0986111 67.0425,57.0986111 C64.6625,57.0986111 62.7025,58.8311111 62.7025,61.7186111 L62.7025,61.7186111 Z M63.98,60.7911111 C64.26,59.0236111 65.5375,58.0961111 67.0075,58.0961111 C68.32,58.0961111 69.44,58.9536111 69.51,60.7911111 L63.98,60.7911111 Z M72.275,65.0436111 C72.275,65.0436111 73.395,66.3211111 75.53,66.3211111 C77.2975,66.3211111 78.54,65.2886111 78.54,63.8536111 C78.54,60.9486111 73.7975,61.4736111 73.7975,59.5311111 C73.7975,58.5511111 74.655,58.1661111 75.5475,58.1661111 C77,58.1661111 77.7525,58.9711111 77.7525,58.9711111 L78.295,58.0611111 C78.295,58.0611111 77.4375,57.0986111 75.5825,57.0986111 C73.99,57.0986111 72.5725,57.9561111 72.5725,59.5311111 C72.5725,62.4011111 77.315,61.9286111 77.315,63.8536111 C77.315,64.7811111 76.4925,65.2536111 75.5475,65.2536111 C73.9025,65.2536111 72.9225,64.1861111 72.9225,64.1861111 L72.275,65.0436111 Z" id="Originales" fill="#365880"></path>
                    </g>
                </g>
            </g>
        </g>
    </g>
</svg>